# AST/ASF file generated using VICON BodyLanguage
# -----------------------------------------------
:version 1.10
:name VICON
:units
  mass 1.0
  length 0.45
  angle deg
:documentation
   .ast/.asf automatically generated from VICON data using
   VICON BodyBuilder and BodyLanguage model FoxedUp or BRILLIANT.MOD
:root
   order TX TY TZ RX RY RZ
   axis XYZ
   position 0 0 0  
   orientation 0 0 0 
:bonedata
  begin
     id 1 
     name lhipjoint
     direction 0.567149 -0.783011 0.255413 
     length 2.28399 
     axis 0 0 0  XYZ
  end
  begin
     id 2 
     name lfemur
     direction 0.34202 -0.939693 0  
     length 7.34031  
     axis 0 0 20  XYZ
    dof rx ry rz
    limits (-160.0 20.0)
           (-70.0 70.0)
           (-60.0 70.0)
  end
  begin
     id 3 
     name ltibia
     direction 0.34202 -0.939693 0   
     length 6.9833   
     axis 0 0 20   XYZ
    dof rx
    limits (-10.0 170.0)
  end
  begin
     id 4 
     name lfoot
     direction 0.136498 -0.375025 0.91691   
     length 2.33665   
     axis -90 7.62852e-016 20   XYZ
    dof rx rz
    limits (-45.0 90.0)
           (-70.0 20.0)
  end
  begin
     id 5 
     name ltoes
     direction 1.5367e-011 -4.21617e-011 1   
     length 1.15039   
     axis -90 7.62852e-016 20   XYZ
    dof rx
    limits (-90.0 20.0)
  end
  begin
     id 6 
     name rhipjoint
     direction -0.602854 -0.758518 0.247423   
     length 2.35775  
     axis 0 0 0  XYZ 
  end
  begin
     id 7 
     name rfemur
     direction -0.34202 -0.939693 0   
     length 7.43932   
     axis 0 0 -20   XYZ
    dof rx ry rz
    limits (-160.0 20.0)
           (-70.0 70.0)
           (-70.0 60.0)
  end
  begin
     id 8 
     name rtibia
     direction -0.34202 -0.939693 0   
     length 7.11893   
     axis 0 0 -20   XYZ
    dof rx
    limits (-10.0 170.0)
 end
 begin
     id 9 
     name rfoot
     direction -0.131771 -0.362037 0.922803   
     length 2.53019  
     axis -90 -7.62852e-016 -20   XYZ
    dof rx rz
    limits (-45.0 90.0)
           (-20.0 70.0)
  end
  begin
     id 10 
     name rtoes
     direction -1.53733e-011 -4.21932e-011 1   
     length 1.24596   
     axis -90 -7.62852e-016 -20   XYZ
    dof rx
    limits (-90.0 20.0)
  end
  begin
     id 11 
     name lowerback
     direction 0.0235427 0.999023 -0.0374125   
     length 2.21768   
     axis 0 0 0   XYZ
    dof rx ry rz
    limits (-20.0 45.0)
           (-30.0 30.0)
           (-30.0 30.0)
  end
  begin
     id 12 
     name upperback
     direction 0.0302156 0.996818 -0.073759   
     length 2.20352   
     axis 0 0 0   XYZ
    dof rx ry rz
    limits (-20.0 45.0)
           (-30.0 30.0)
           (-30.0 30.0)
  end
  begin
     id 13 
     name thorax
     direction 0.0187169 0.998235 -0.0563532   
     length 2.22103   
     axis 0 0 0   XYZ
    dof rx ry rz
    limits (-20.0 45.0)
           (-30.0 30.0)
           (-30.0 30.0)
  end
  begin
     id 14 
     name lowerneck
     direction -0.119528 0.987423 0.103481   
     length 1.72948   
     axis 0 0 0   XYZ
    dof rx ry rz
    limits (-20.0 45.0)
           (-30.0 30.0)
           (-30.0 30.0)
  end
  begin
     id 15 
     name upperneck
     direction 0.248049 0.963095 -0.104496   
     length 1.74979   
     axis 0 0 0   XYZ
    dof rx ry rz
    limits (-20.0 45.0)
           (-30.0 30.0)
           (-30.0 30.0)
  end
  begin
     id 16
     name head
     direction 0.0903589 0.994284 -0.056876  
     length 1.78268  
     axis 0 0 0   XYZ
    dof rx ry rz
    limits (-20.0 45.0)
           (-30.0 30.0)
           (-30.0 30.0)
  end
  begin
     id 17 
     name lclavicle
     direction 0.946008 0.242039 -0.215608  
     length 3.80783  
     axis 0 0 0   XYZ
    dof ry rz
    limits (-20.0 10.0)
           (0.0 20.0)
  end
  begin
     id 18 
     name lhumerus
     direction 1 -4.48991e-011 -2.25695e-027   
     length 4.83125   
     axis 180 -30 -90   XYZ
    dof rx ry rz
    limits (-60.0 90.0)
           (-90.0 90.0)
           (-90.0 90.0)
  end
  begin
     id 19
     name lradius
     direction 0.999991 0.00366712 -0.00211721   
     length 3.00391   
     axis 180 -30 -90   XYZ
    dof rx
    limits (-10.0 170.0)
  end
  begin
     id 20
     name lwrist
     direction 0.999991 0.00393016 -0.00141978   
     length 1.50195   
     axis -1.00488e-014 90 90   XYZ
    dof ry
    limits (-180.0 0.0)
 end
  begin
     id 21 
     name lhand
     direction 1 -4.49123e-011 2.72098e-026   
     length 1.2717   
     axis -1.73687e-014 90 90   XYZ
    dof rx rz
    limits (-90.0 90.0)
           (-45.0 45.0)
  end
  begin
     id 22 
     name lfingers
     direction 1 -4.48678e-011 5.4479e-026   
     length 1.02528   
     axis -3.47372e-014 90 90   XYZ
    dof rx
    limits (0.0 90.0)
  end
  begin
     id 23
     name lthumb
     direction 0.707107 -6.34851e-011 0.707107   
     length 1.4721   
     axis -90 45 -1.62303e-014   XYZ
    dof rx rz
    limits (-45.0 45.0)
           (-45.0 45.0)
  end
  begin
     id 24 
     name rclavicle
     direction -0.981723 0.189447 -0.0181673   
     length 3.74989  
     axis 0 0 0   XYZ 
    dof ry rz
    limits (-10.0 20.0)
           (-20.0 0.0)
  end
  begin
     id 25 
     name rhumerus
     direction -1 -4.48985e-011 2.38206e-027  
     length 4.61118   
     axis 180 30 90   XYZ
    dof rx ry rz
    limits (-90.0 60.0)
           (-90.0 90.0)
           (-90.0 90.0)
  end
  begin
     id 26 
     name rradius
     direction -1 -4.48977e-011 7.41019e-027   
     length 2.91491   
     axis 180 30 90   XYZ
    dof rx
    limits (-10.0 170.0)
  end
  begin
     id 27 
     name rwrist
     direction -1 -4.48549e-011 1.3624e-026   
     length 1.45745   
     axis -1.00488e-014 -90 -90   XYZ
    dof ry
    limits (-180.0 0.0)
  end
  begin
     id 28
     name rhand
     direction -1 -4.49107e-011 2.72109e-026   
     length 1.30769   
     axis -1.73687e-014 -90 -90   XYZ
    dof rx rz
    limits (-90.0 90.0)
           (-45.0 45.0)
  end
  begin
     id 29
     name rfingers
     direction -1 -4.48919e-011 5.44468e-026   
     length 1.05429   
     axis -3.47372e-014 -90 -90   XYZ
    dof rx
    limits (0.0 90.0)
  end
  begin
     id 30
     name rthumb
     direction -0.707107 -6.35315e-011 0.707107   
     length 1.51376   
     axis -90 -45 1.62303e-014   XYZ
    dof rx rz
    limits (-45.0 45.0)
           (-45.0 45.0)
  end
:hierarchy
  begin
    root lhipjoint rhipjoint lowerback
    lhipjoint lfemur
    lfemur ltibia
    ltibia lfoot
    lfoot ltoes
    rhipjoint rfemur
    rfemur rtibia
    rtibia rfoot
    rfoot rtoes
    lowerback upperback
    upperback thorax
    thorax lowerneck lclavicle rclavicle
    lowerneck upperneck
    upperneck head
    lclavicle lhumerus
    lhumerus lradius
    lradius lwrist
    lwrist lhand lthumb
    lhand lfingers
    rclavicle rhumerus
    rhumerus rradius
    rradius rwrist
    rwrist rhand rthumb
    rhand rfingers
  end

#!OML:ASF X:\für Bonn\!DataBase\2005_08_11_Bastian_Final\c3d\Bastian.ASF
:FULLY-SPECIFIED
:DEGREES
1
root 25.5641 17.3218 -5.00874 536.738 -100.332 -188.682
lowerback 13.187 -0.749568 0.840827
upperback 11.3879 -1.64461 2.19012
thorax 4.70466 -1.15185 1.94899
lowerneck 3.60828 -4.06502 -5.35361
upperneck 18.2944 -6.85245 5.30713
head 5.27204 -3.61519 2.28458
rclavicle 3.18055e-015 -1.31198e-014
rhumerus -18.1384 8.86238 -83.1789
rradius 24.4267
rwrist -3.95587
rhand -24.3194 -1.80947
rfingers 7.12502
rthumb 2.16894 -31.7782
lclavicle 3.18055e-015 -1.31198e-014
lhumerus -13.4473 -22.7617 91.6782
lradius 32.7775
lwrist 20.1653
lhand -12.2355 -9.09777
lfingers 7.12502
lthumb 13.8301 20.4225
rfemur -16.7635 1.53133 22.232
rtibia 30.443
rfoot -7.03046 -7.8119
rtoes -13.0636
lfemur 14.4954 1.47334 -19.8813
ltibia 26.6079
lfoot -11.9824 -15.9195
ltoes -6.82986
2
root 25.4849 17.3174 -5.01602 536.542 -100.577 -188.532
lowerback 13.6411 -0.736775 0.983307
upperback 11.5345 -1.63004 2.24247
thorax 4.62159 -1.14726 1.93252
lowerneck 3.69373 -4.11824 -5.38703
upperneck 17.9712 -6.90214 5.36739
head 5.16317 -3.63423 2.31137
rclavicle 3.18055e-015 -1.66979e-014
rhumerus -17.5163 8.94554 -83.0501
rradius 24.1565
rwrist -3.82146
rhand -24.3227 -1.76503
rfingers 7.12502
rthumb 2.16574 -31.7338
lclavicle 3.18055e-015 -1.66979e-014
lhumerus -13.3748 -22.6902 91.7367
lradius 32.2635
lwrist 19.9553
lhand -12.3739 -8.86092
lfingers 7.12502
lthumb 13.6966 20.6684
rfemur -16.4565 1.44615 22.2785
rtibia 30.3201
rfoot -5.90839 -7.62095
rtoes -13.6425
lfemur 13.661 1.35589 -19.7637
ltibia 28.7539
lfoot -12.1578 -16.1705
ltoes -8.27319
3
root 25.4067 17.3128 -5.02387 536.452 -100.816 -188.502
lowerback 14.1439 -0.71111 1.14845
upperback 11.662 -1.59295 2.31062
thorax 4.4924 -1.13029 1.91925
lowerneck 3.88212 -4.17345 -5.46243
upperneck 17.5919 -6.96332 5.47609
head 5.0238 -3.66142 2.36295
rclavicle -4.96962e-015 8.34896e-015
rhumerus -16.9556 9.02251 -82.891
rradius 23.9344
rwrist -3.61613
rhand -24.2999 -1.80433
rfingers 7.12502
rthumb 2.18772 -31.7729
lclavicle -4.96962e-015 8.34896e-015
lhumerus -13.3948 -22.6712 91.849
lradius 31.7869
lwrist 19.8528
lhand -12.6429 -8.61171
lfingers 7.12502
lthumb 13.4374 20.9349
rfemur -16.1194 1.34681 22.3368
rtibia 30.1903
rfoot -4.87854 -7.45995
rtoes -13.739
lfemur 12.7709 1.28677 -19.5996
ltibia 31.0226
lfoot -12.1176 -16.4745
ltoes -9.78927
4
root 25.3309 17.31 -5.03242 536.449 -101.067 -188.615
lowerback 14.6943 -0.684309 1.32174
upperback 11.8523 -1.56095 2.41424
thorax 4.41044 -1.12059 1.93946
lowerneck 3.96668 -4.24987 -5.52653
upperneck 17.2077 -7.03467 5.51781
head 4.89891 -3.69297 2.38865
rclavicle 3.67752e-014 -1.98785e-015
rhumerus -16.251 9.02018 -82.6539
rradius 23.6425
rwrist -3.30042
rhand -24.2153 -1.75504
rfingers 7.12502
rthumb 2.26938 -31.7227
lclavicle 3.67752e-014 -1.98785e-015
lhumerus -13.3029 -22.6504 91.9621
lradius 31.2635
lwrist 19.7662
lhand -12.9725 -8.33428
lfingers 7.12502
lthumb 13.1197 21.233
rfemur -15.7122 1.23786 22.4155
rtibia 30.0686
rfoot -3.96746 -7.33444
rtoes -13.009
lfemur 11.8524 1.19331 -19.409
ltibia 33.3697
lfoot -11.8311 -16.7236
ltoes -11.183
5
root 25.2571 17.3073 -5.04217 536.564 -101.285 -188.85
lowerback 15.296 -0.648681 1.52542
upperback 12.0218 -1.50894 2.50586
thorax 4.27925 -1.09807 1.92916
lowerneck 4.14942 -4.32057 -5.53737
upperneck 16.7577 -7.10069 5.56624
head 4.73601 -3.72088 2.41131
rclavicle 1.78906e-015 -2.46493e-014
rhumerus -15.5785 9.10696 -82.466
rradius 23.3845
rwrist -3.09942
rhand -24.1609 -1.77035
rfingers 7.12502
rthumb 2.322 -31.7375
lclavicle 1.78906e-015 -2.46493e-014
lhumerus -13.2874 -22.6267 92.0531
lradius 30.7792
lwrist 19.7578
lhand -13.3134 -8.02817
lfingers 7.12502
lthumb 12.7911 21.56
rfemur -15.308 1.20026 22.5163
rtibia 29.9512
rfoot -3.14024 -7.34508
rtoes -11.8647
lfemur 10.8809 1.15892 -19.1742
ltibia 35.7722
lfoot -11.3395 -17.0485
ltoes -12.5658
